<svg width="988" height="576" viewBox="0 0 988 576" fill="none" xmlns="http://www.w3.org/2000/svg">
<rect width="988" height="576" rx="39" fill="#151731"/>
<path d="M222.368 49.5391L221.348 65.3301L220.972 65.4375C218.322 61.4629 213.81 58.8848 207.437 57.7031C205.431 57.3092 203.498 57.1123 201.636 57.1123C199.81 57.1123 198.234 57.2734 196.909 57.5957C195.62 57.918 194.51 58.3835 193.579 58.9922C191.61 60.2812 190.625 61.9642 190.625 64.041C190.625 66.7624 191.484 68.8034 193.203 70.1641C195.352 71.8112 198.914 72.9749 203.892 73.6553C208.869 74.2998 212.861 75.195 215.869 76.3408C218.877 77.4867 221.348 78.9368 223.281 80.6914C226.934 83.9857 228.76 88.6406 228.76 94.6562C228.76 102.534 225.788 108.603 219.844 112.864C214.759 116.517 208.35 118.343 200.615 118.343C194.385 118.343 188.226 117.161 182.139 114.798C180.133 114.01 178.379 113.097 176.875 112.059L177.466 94.1191L177.681 93.958C182.121 101.621 189.408 105.452 199.541 105.452C206.738 105.452 211.501 103.715 213.828 100.242C214.616 99.0605 215.01 97.7536 215.01 96.3213C215.01 94.8532 214.777 93.6536 214.312 92.7227C213.846 91.7559 213.076 90.9323 212.002 90.252C209.925 88.8913 206.434 87.9782 201.528 87.5127C196.623 87.0472 192.612 86.1699 189.497 84.8809C186.382 83.5918 183.893 81.9984 182.031 80.1006C178.665 76.6631 176.982 71.8649 176.982 65.7061C176.982 59.3324 179.22 54.1761 183.696 50.2373C188.244 46.2269 194.367 44.2217 202.065 44.2217C209.8 44.2217 216.567 45.9941 222.368 49.5391Z" fill="white" fill-opacity="0.1"/>
<path d="M257.871 117.322C254.434 117.107 250.352 117 245.625 117H243.906V45.2959C246.126 45.4749 247.702 45.5645 248.633 45.5645H250.835C253.664 45.5645 256.009 45.4212 257.871 45.1348V73.7627H283.115V45.2959C286.087 45.4749 288.97 45.5645 291.763 45.5645C294.591 45.5645 296.364 45.4212 297.08 45.1348V117.322C295.361 117.107 291.96 117 286.875 117H283.115V86.6533H257.871V117.322Z" fill="white" fill-opacity="0.1"/>
<path d="M321.841 117.43C318.761 117.143 315.163 117 311.045 117H306.802L330.166 51.5264C331.204 48.5902 331.724 46.8893 331.724 46.4238C331.724 45.9225 331.706 45.6182 331.67 45.5107L331.724 45.4033C334.051 45.5107 336.522 45.5645 339.136 45.5645C341.284 45.5645 343.862 45.5286 346.87 45.457L346.924 45.5645C346.852 45.7077 346.816 45.9046 346.816 46.1553C346.816 46.8356 347.354 48.6439 348.428 51.5801L372.275 117.161C371.559 117.125 370.718 117.107 369.751 117.107L366.958 117H356.216L351.167 101.531H326.89L321.841 117.43ZM346.978 88.6406L338.867 63.665L330.972 88.6406H346.978Z" fill="white" fill-opacity="0.1"/>
<path d="M398.379 118.343C392.578 118.343 387.118 117.877 381.997 116.946V45.0811C386.724 44.5081 392.202 44.2217 398.433 44.2217C404.699 44.2217 410.356 45.0811 415.405 46.7998C420.49 48.4827 424.733 50.8997 428.135 54.0508C435.01 60.3529 438.447 69.1794 438.447 80.5303C438.447 93.2419 434.616 102.892 426.953 109.48C420.078 115.389 410.553 118.343 398.379 118.343ZM395.962 105.237C398.289 105.667 400.617 105.882 402.944 105.882C405.272 105.882 407.778 105.434 410.464 104.539C413.149 103.608 415.477 102.176 417.446 100.242C421.672 96.1602 423.784 90.2161 423.784 82.4102C423.784 69.5911 419.111 61.7135 409.766 58.7773C406.686 57.8105 403.123 57.3271 399.077 57.3271H397.627C397.09 57.3271 396.535 57.3451 395.962 57.3809V105.237Z" fill="white" fill-opacity="0.1"/>
<path d="M460.093 108.514C456.834 105.398 454.256 101.657 452.358 97.2881C450.496 92.9196 449.565 88.1393 449.565 82.9473C449.565 77.7194 450.443 72.778 452.197 68.123C453.952 63.4681 456.458 59.3682 459.717 55.8232C462.975 52.2783 466.914 49.4674 471.533 47.3906C476.152 45.278 481.326 44.2217 487.056 44.2217C496.938 44.2217 505.264 47.3369 512.031 53.5674C519.264 60.2275 522.881 69.2152 522.881 80.5303C522.881 91.4873 519.157 100.6 511.709 107.869C507.126 112.345 501.665 115.424 495.327 117.107C492.212 117.931 488.56 118.343 484.37 118.343C480.216 118.343 475.938 117.483 471.533 115.765C467.165 114.046 463.351 111.629 460.093 108.514ZM464.497 82.1953C464.497 85.5254 465.052 88.5869 466.162 91.3799C467.272 94.1729 468.812 96.5719 470.781 98.5771C474.971 102.802 480.36 104.915 486.948 104.915C493.215 104.915 498.245 102.892 502.041 98.8457C505.908 94.6562 507.842 88.945 507.842 81.7119C507.842 74.9085 505.998 69.2331 502.31 64.6855C498.335 59.8158 492.892 57.3809 485.981 57.3809C479.285 57.3809 473.968 59.8516 470.029 64.793C466.341 69.4121 464.497 75.2129 464.497 82.1953Z" fill="white" fill-opacity="0.1"/>
<path d="M562.305 117.215C561.23 117.072 559.404 117 556.826 117H550.596C549.378 117 548.376 117.036 547.588 117.107L547.534 117C547.677 116.749 547.749 116.463 547.749 116.141C547.749 115.818 547.713 115.478 547.642 115.12C547.606 114.762 547.463 114.118 547.212 113.187C546.997 112.256 546.657 110.913 546.191 109.158L527.93 45.3496C530.221 45.4928 532.996 45.5645 536.255 45.5645C539.513 45.5645 541.626 45.4212 542.593 45.1348L555.269 93.7432L567.622 45.3496C568.159 45.3854 568.643 45.4212 569.072 45.457H570.254C571.436 45.5286 572.922 45.5645 574.712 45.5645C576.502 45.5645 578.346 45.4212 580.244 45.1348L592.812 93.7432L603.608 45.3496C605.757 45.4928 608.568 45.5645 612.041 45.5645C615.514 45.5645 617.627 45.4212 618.379 45.1348L602.91 101.8C600.941 108.317 599.902 112.184 599.795 113.401C599.688 114.619 599.634 115.46 599.634 115.926C599.634 116.391 599.705 116.767 599.849 117.054L599.741 117.215C598.595 117.072 596.787 117 594.316 117C592.168 117 590.216 117 588.462 117C586.707 117 585.436 117.036 584.648 117.107L584.595 117C584.738 116.749 584.81 116.463 584.81 116.141C584.81 115.818 584.792 115.496 584.756 115.174C584.72 114.852 584.613 114.243 584.434 113.348C584.29 112.417 584.04 111.056 583.682 109.266L582.231 101.961L573.423 68.499L565.044 101.8C563.325 108.639 562.43 112.578 562.358 113.616C562.215 115.586 562.233 116.731 562.412 117.054L562.305 117.215Z" fill="white" fill-opacity="0.1"/>
<path d="M573.627 178.924C572.064 178.761 570.046 178.68 567.572 178.68H552.777V207H539.398V141.717C540.277 141.782 541.286 141.831 542.426 141.863L546.039 141.961C548.513 142.026 551.085 142.059 553.754 142.059C561.762 142.059 569.411 141.928 576.703 141.668C576.345 144.533 576.166 148.357 576.166 153.143C576.166 153.663 576.199 154.054 576.264 154.314L576.166 154.461C574.441 153.973 572.032 153.729 568.939 153.729H552.777V167.156H567.035C570.616 167.156 572.764 167.059 573.48 166.863L573.627 178.924ZM590.814 141.863C594.07 141.993 596.039 142.059 596.723 142.059H600.238C601.964 142.059 603.347 141.928 604.389 141.668L604.34 207H590.814V141.863ZM661.908 145.672L660.98 160.027L660.639 160.125C658.23 156.512 654.128 154.168 648.334 153.094C646.511 152.736 644.753 152.557 643.061 152.557C641.4 152.557 639.968 152.703 638.764 152.996C637.592 153.289 636.583 153.712 635.736 154.266C633.946 155.438 633.051 156.967 633.051 158.855C633.051 161.329 633.832 163.185 635.395 164.422C637.348 165.919 640.587 166.977 645.111 167.596C649.636 168.182 653.266 168.995 656 170.037C658.734 171.079 660.98 172.397 662.738 173.992C666.059 176.987 667.719 181.219 667.719 186.688C667.719 193.849 665.017 199.367 659.613 203.24C654.991 206.561 649.164 208.221 642.133 208.221C636.469 208.221 630.87 207.146 625.336 204.998C623.513 204.282 621.918 203.452 620.551 202.508L621.088 186.199L621.283 186.053C625.32 193.019 631.944 196.502 641.156 196.502C647.699 196.502 652.029 194.923 654.145 191.766C654.861 190.691 655.219 189.503 655.219 188.201C655.219 186.867 655.007 185.776 654.584 184.93C654.161 184.051 653.461 183.302 652.484 182.684C650.596 181.447 647.423 180.617 642.963 180.193C638.503 179.77 634.857 178.973 632.025 177.801C629.193 176.629 626.931 175.18 625.238 173.455C622.178 170.33 620.648 165.968 620.648 160.369C620.648 154.575 622.683 149.887 626.752 146.307C630.886 142.661 636.452 140.838 643.451 140.838C650.482 140.838 656.635 142.449 661.908 145.672ZM704.438 207.293C702.875 207.098 698.855 207 692.377 207H690.814V152.996H681.146C678.282 152.996 676.589 153.143 676.068 153.436C675.548 153.729 675.141 153.989 674.848 154.217L674.701 154.168V141.668L674.848 141.521C675.922 141.88 678.819 142.059 683.539 142.059H714.154C717.019 142.059 718.712 141.912 719.232 141.619C719.753 141.326 720.16 141.066 720.453 140.838L720.6 140.887V153.387L720.453 153.533C719.379 153.175 716.482 152.996 711.762 152.996H704.438V207.293Z" fill="white" fill-opacity="0.18"/>
<rect x="48" y="124" width="67" height="434" fill="#4A4040"/>
<rect x="233" y="263" width="67" height="298" fill="#4A4040"/>
<rect x="133" y="365" width="82" height="194" fill="#4A4040"/>
<rect x="727" y="251" width="67" height="307" fill="#4A4040"/>
<rect x="899" y="360" width="46" height="198" fill="#4A4040"/>
<rect x="812" y="430" width="40" height="128" fill="#4A4040"/>
<rect x="862" y="398" width="40" height="160" fill="#4A4040"/>
<path d="M216 402L371.899 372" stroke="#F0A030" stroke-width="30" stroke-linecap="round"/>
<path d="M204 320C218.912 320 231 307.912 231 293C231 278.088 218.912 266 204 266C189.088 266 177 278.088 177 293C177 307.912 189.088 320 204 320Z" fill="#F0A030"/>
<path d="M192 345C192 345.05 192.04 350.74 192.276 360.352C192.423 366.374 194.849 372.916 197.891 380.46C201.387 389.132 208.216 394.328 211.362 396.793C212.094 397.208 212.942 397.592 213.709 397.957C214.477 398.322 215.139 398.656 216 399" stroke="#F0A030" stroke-width="36" stroke-linecap="round"/>
<path d="M164 452L210.899 402" stroke="#F0A030" stroke-width="30" stroke-linecap="round"/>
<path d="M164 452L254 443" stroke="#F0A030" stroke-width="30" stroke-linecap="round"/>
<path d="M259.022 343.092L133.942 330.633" stroke="#F0A030" stroke-width="26" stroke-linecap="round"/>
<path d="M126.154 329.449C124.549 329.449 119.967 329.262 116.844 328.555C113.678 327.839 108.152 327.633 104.32 329.059C103.659 329.304 104.149 330.475 104.646 331.036M123.012 346.436C78.9422 308.633 129.264 351.41 131.966 354.396C134.749 357.47 138.055 359.054 142.69 360.512C146.278 361.372 149.349 361.734 152.358 361.74C153.128 361.653 153.907 361.479 156.831 361.012" stroke="#F0A030" stroke-width="24" stroke-linecap="round"/>
<path d="M288.478 334.559C288.478 334.615 288.445 335.397 287.983 336.942C287.399 338.892 285.27 339.818 283.93 340.568C278.991 341.261 272.431 341.875 268.834 342.724C267.41 342.843 265.301 342.861 263.128 342.88" stroke="#F0A030" stroke-width="26" stroke-linecap="round"/>
<path d="M177 278.909C163.526 271.03 150.053 271.03 136.579 278.909C127.596 286.788 119.737 288.101 113 282.848" stroke="#FF3020" stroke-width="9" stroke-linecap="round"/>
<path opacity="0.66" d="M314.201 279.918C366.517 281.802 459.053 357.738 418.603 356.728" stroke="#F0A030" stroke-width="6" stroke-linecap="round"/>
<path opacity="0.66" d="M300.557 320.07C342.088 313.914 437.86 340.908 405.887 345.901" stroke="#F0A030" stroke-width="6" stroke-linecap="round"/>
<path opacity="0.66" d="M358.906 435.029C392.322 429.128 446.683 373.231 420.818 377.515" stroke="#F0A030" stroke-width="6" stroke-linecap="round"/>
<path opacity="0.66" d="M427.869 370.371C459.294 360.132 427.061 390.608 402.224 398.823" stroke="#F0A030" stroke-width="6" stroke-linecap="round"/>
<path opacity="0.66" d="M445.796 357.529C445.796 357.529 440.182 330.833 426.627 324.366" stroke="#F0A030" stroke-width="6" stroke-linecap="round"/>
<circle opacity="0.21" cx="383.5" cy="348.5" r="5.5" fill="#F0A030"/>
<ellipse cx="323.288" cy="437.529" rx="5.5" ry="11" transform="rotate(65.7734 323.288 437.529)" fill="#F7CE95"/>
<ellipse cx="280.571" cy="284.667" rx="3.77269" ry="8.95738" transform="rotate(102.827 280.571 284.667)" fill="#F7CE95"/>
<ellipse cx="404.531" cy="413" rx="2.70027" ry="6.18389" transform="rotate(65.7734 404.531 413)" fill="#F7CE95"/>
<circle opacity="0.21" cx="394.5" cy="392.5" r="5.5" fill="#F0A030"/>
<circle opacity="0.21" cx="348.5" cy="358.5" r="5.5" fill="#F0A030"/>
<circle opacity="0.21" cx="433.5" cy="394.5" r="5.5" fill="#F0A030"/>
<g filter="url(#filter0_i_0_1)">
<ellipse cx="411.5" cy="362.5" rx="18.5" ry="17.5" fill="#D9D9D9"/>
</g>
<path opacity="0.63" d="M835.541 321.395C844.891 318.819 850.384 309.151 847.808 299.801C845.233 290.451 835.565 284.958 826.214 287.534C816.864 290.109 811.372 299.777 813.947 309.128C816.523 318.478 826.191 323.97 835.541 321.395Z" fill="#696161"/>
<path opacity="0.63" d="M815.807 555.912C826.777 553.043 833.221 542.274 830.199 531.859C827.177 521.443 815.834 515.326 804.864 518.194C793.893 521.063 787.45 531.832 790.471 542.248C793.493 552.663 804.836 558.781 815.807 555.912Z" fill="#696161"/>
<path opacity="0.63" d="M864.906 310.863C923.64 308.139 902.244 319.048 871.38 334.368" stroke="#696161" stroke-width="24" stroke-linecap="round"/>
<path opacity="0.63" d="M767.54 342.97C797.61 333.023 817.165 330.691 857.822 333.486" stroke="#696161" stroke-width="24" stroke-linecap="round"/>
<path opacity="0.63" d="M787.608 383.504C810.305 361.412 826.873 350.767 864.662 335.508" stroke="#696161" stroke-width="24" stroke-linecap="round"/>
<path opacity="0.63" d="M657.404 542C695.544 552.304 720.129 554.092 770.838 548.732" stroke="#696161" stroke-width="24" stroke-linecap="round"/>
<path opacity="0.63" d="M612.479 539.334C665.934 550.547 700.263 552.913 770.838 548.732" stroke="#696161" stroke-width="24" stroke-linecap="round"/>
<path opacity="0.63" d="M534 535.177C573.105 529.308 597.515 530.379 646.38 541.634" stroke="#696161" stroke-width="24" stroke-linecap="round"/>
<path opacity="0.63" d="M543.003 551.197C581.766 543.253 606.42 542.977 656.659 551.435" stroke="#696161" stroke-width="24" stroke-linecap="round"/>
<path opacity="0.63" d="M879.811 304.917C892.728 286.999 903.678 280.992 931.156 278.936" stroke="#696161" stroke-width="24" stroke-linecap="round"/>
<path opacity="0.63" d="M882.03 306.856C898.071 291.671 909.952 287.819 937.329 290.941" stroke="#696161" stroke-width="24" stroke-linecap="round"/>
<path d="M518 558C521.179 558 531.936 556.876 537.552 554.257C541.797 552.278 544.99 549.996 547.515 548.295C549.837 546.73 550.889 543.716 555.769 536.503C558.67 532.216 563.443 524.69 567.92 516.998C572.397 509.307 576.371 501.635 580.247 495.047C591.742 475.511 596.273 471.677 598.575 469.177C601.608 465.882 606.13 463.462 608.601 461.788C611.071 460.114 615.616 457.284 619.893 453.95C625.361 449.687 629.513 447.067 632.342 446.485C638.039 445.314 650.456 435.886 656.255 433.48C659.876 431.902 664.351 429.741 669.242 427.583C671.151 426.759 671.896 426.486 673 426" stroke="#C70D0D" stroke-width="15" stroke-linecap="round"/>
<path d="M866 554C861.265 553.998 849.445 553.34 835.874 542.987C825.646 535.184 808.395 517.93 796.727 507.484C785.058 497.038 780.114 493.105 776.313 489.967C769.933 484.701 761.284 478.054 749.683 469.739C739.369 462.345 732.003 456.127 726.411 451.885C717.234 444.923 713.306 439.202 700.571 430.847C690.754 426.344 687.105 425.158 682.81 424.174C681.806 423.926 681.028 423.669 679 423" stroke="#C70D0D" stroke-width="15" stroke-linecap="round"/>
<path d="M629 356C629.857 356.248 639.579 364.652 645.132 370.388C647.271 372.597 651.421 377.797 654.954 381.782C657.814 385.009 662.043 389.523 664.921 394.054C667.374 397.915 669.332 400.325 672.225 404.711C674.123 408.923 675.378 412.459 676.023 414.352C676.333 415.253 676.605 416.034 677 417" stroke="#C70D0D" stroke-width="15" stroke-linecap="round"/>
<path d="M644 356.38C644.679 356.024 646.957 354.353 649.761 352.187C654.434 348.577 657.672 344.54 660.63 343.297C664.751 341.566 667.831 341.872 676.337 342.475C686.009 343.16 692.579 346.393 695.365 347.818C700.042 350.211 706.892 355.321 714.382 361.073C722.886 368.304 724.669 370.415 725 371.731" stroke="#C70D0D" stroke-width="15" stroke-linecap="round"/>
<path d="M620.69 346.579C620.301 345.885 615.462 341.092 610.553 337.879C606.093 334.96 600.904 335.484 596.839 335.048C591.467 334.472 585.661 339.188 582.038 342.446C579.601 344.638 579.121 349.815 579.001 365.336C578.975 368.683 579.804 369.881 580.363 370.736C582.709 374.326 591.917 375.378 600.916 377.334C611.819 379.704 617.325 375.262 621.616 371.644C623.301 368.27 623.978 364.604 624 355.793C623.933 353.859 623.798 353.106 622.61 350.836" stroke="#C70D0D" stroke-width="15" stroke-linecap="round"/>
<path d="M570.22 347.703C750.555 418.514 557.67 343 550.184 343C542.698 343 540.224 347.703 524 347.446" stroke="#C70D0D" stroke-width="15" stroke-linecap="round"/>
<path d="M627.155 456.056C627.707 456.007 629.87 455.651 632.019 455.105C635.313 454.268 637.57 453.225 642.661 450.338C645.162 448.92 646.993 448.369 650.88 446.807C660.409 442.979 667.786 439.662 669.883 438.496C673.09 436.468 674.852 435.294 676.461 434.111C676.881 433.769 677.347 433.344 678.158 432.641" stroke="#C70D0D" stroke-width="10" stroke-linecap="round"/>
<path d="M685.162 431.284C685.645 431.476 687.783 433.061 689.768 434.453C691.887 435.94 694.643 437.649 696.976 439.16C701.276 441.946 705.347 444.233 708.592 446.863C710.768 448.626 713.689 449.899 716.447 451.523C718.328 452.631 721.613 454.622 724.214 455.884C725.194 456.344 726.288 456.915 727.398 457.559C727.929 457.887 728.393 458.217 728.883 458.83" stroke="#C70D0D" stroke-width="10" stroke-linecap="round"/>
<path d="M607.749 467.86C608.286 467.833 610.493 467.497 613.97 466.396C619.881 464.524 625.219 460.635 630.709 458.15C637.144 455.238 641.826 451.967 643.42 450.717C644.212 450.098 645.04 449.532 645.889 449.063C646.319 448.839 646.751 448.647 647.929 448.141" stroke="#C70D0D" stroke-width="10" stroke-linecap="round"/>
<path d="M644.676 360.125C646.277 360.125 650.527 359.638 652.934 358.467C654.827 357.547 656.278 356.351 657.41 354.951C658.67 353.392 659.464 351.66 660.489 350.131C660.985 349.443 661.468 348.659 661.897 347.793C662.102 347.37 662.281 346.979 662.466 346.577" stroke="#C70D0D" stroke-width="10" stroke-linecap="round"/>
<path d="M676.465 345.152C676.921 345.682 678.389 347.187 679.78 347.934C681.215 348.704 682.656 349.542 684.584 350.612C686.749 351.812 688.68 352.169 690.562 352.789C693.7 353.774 695.351 354.121 696.954 354.201C698.12 354.228 700.003 354.228 701.944 354.228" stroke="#C70D0D" stroke-width="10" stroke-linecap="round"/>
<path d="M654 388C654 388.025 654 388.051 654.012 388.275C654.024 388.499 654.049 388.92 654.425 389.864" stroke="#C70D0D" stroke-width="10" stroke-linecap="round"/>
<path d="M660 396C660 396.03 660.313 396.453 660.927 397.253C661.229 397.646 661.51 398.012 661.773 398.354C662.036 398.696 662.272 399.004 663.165 400.215" stroke="#C70D0D" stroke-width="10" stroke-linecap="round"/>
<path d="M664.847 399.972C664.847 400.002 665.036 400.395 665.446 401.141C665.917 401.859 666.435 402.583 666.951 403.285C667.206 403.624 667.448 403.927 667.872 404.393" stroke="#C70D0D" stroke-width="10" stroke-linecap="round"/>
<path d="M640.155 377.854C640.202 377.854 642.015 379.158 645.055 381.313C646.306 382.164 646.966 382.524 647.61 382.783C648.253 383.043 648.861 383.191 649.487 383.343" stroke="#C70D0D" stroke-width="10" stroke-linecap="round"/>
<path d="M520.8 343C520.673 343 519.263 343 517.158 343.584C515.263 344.11 516.124 347.829 516.738 350.157C517.354 351.195 518.589 351.94 519.903 352.348C521.217 352.757 522.572 352.805 523.968 352.854" stroke="#C70D0D" stroke-width="10" stroke-linecap="round"/>
<circle cx="4" cy="4" r="4" transform="matrix(-1 0 0 1 518 327)" fill="black"/>
<circle cx="4" cy="4" r="4" transform="matrix(-1 0 0 1 497 369)" fill="black"/>
<path d="M511 353.5C513.343 356.038 517 360 517 360C524.645 362.944 528.77 362.77 536 361C542.437 356.986 550.597 356.015 552 349.5C556.448 342.869 556.095 338.33 554.5 332.5C552.896 325.915 553 324 547.5 319C542 314 536 310 530.5 308.5C525 307 517 307 517 307" stroke="black" stroke-width="6" stroke-linecap="round"/>
<path d="M528 337.5C530.5 335.5 528 331 528 331C525.173 325.492 520.36 324.154 515.383 321.543C509.717 320.608 504.619 317.075 500.531 320.088C494.664 321.642 492.567 324.408 490.518 328.533C488.092 333.091 485.424 334.893 486 340.5C486.576 346.107 485.293 351.89 487.64 355.5C489.986 359.11 491.925 367 491.925 367" stroke="black" stroke-width="6" stroke-linecap="square"/>
<circle cx="4" cy="4" r="4" transform="matrix(-1 0 0 1 581 327)" fill="#1F0060"/>
<circle cx="4" cy="4" r="4" transform="matrix(-1 0 0 1 573 335)" fill="black"/>
<circle cx="4" cy="4" r="4" transform="matrix(-1 0 0 1 541 295)" fill="black"/>
<circle cx="4" cy="4" r="4" transform="matrix(-1 0 0 1 546 365)" fill="black"/>
<circle cx="4" cy="4" r="4" transform="matrix(-1 0 0 1 548 335)" fill="black"/>
<circle cx="4" cy="4" r="4" transform="matrix(-1 0 0 1 565 376)" fill="black"/>
<circle cx="4" cy="4" r="4" transform="matrix(-1 0 0 1 501 345)" fill="black"/>
<circle cx="4" cy="4" r="4" transform="matrix(-1 0 0 1 522 368)" fill="black"/>
<circle cx="4" cy="4" r="4" transform="matrix(-1 0 0 1 512 303)" fill="black"/>
<circle cx="4" cy="4" r="4" transform="matrix(-1 0 0 1 503 384)" fill="#1F0060"/>
<circle cx="4" cy="4" r="4" transform="matrix(-1 0 0 1 479 335)" fill="#1F0060"/>
<circle cx="4" cy="4" r="4" transform="matrix(-1 0 0 1 567 307)" fill="#1F0060"/>
<circle cx="4" cy="4" r="4" transform="matrix(-1 0 0 1 494 293)" fill="#1F0060"/>
<path d="M509.342 353C503.526 355.552 504.777 362.245 504.476 367.858C505.987 373.398 504.9 379.504 509.342 381.966C513.199 386.651 516.397 389.856 521 390C526.155 390.306 533.643 390.409 538.5 387.55C543.357 384.691 554.696 376.137 557 372.5C559.304 368.863 567 349 567 349" stroke="#0B0021" stroke-width="6" stroke-linecap="square"/>
<g filter="url(#filter1_i_0_1)">
<circle cx="521.5" cy="347.5" r="11.5" fill="#FF0000"/>
</g>
<defs>
<filter id="filter0_i_0_1" x="393" y="345" width="37" height="39" filterUnits="userSpaceOnUse" color-interpolation-filters="sRGB">
<feFlood flood-opacity="0" result="BackgroundImageFix"/>
<feBlend mode="normal" in="SourceGraphic" in2="BackgroundImageFix" result="shape"/>
<feColorMatrix in="SourceAlpha" type="matrix" values="0 0 0 0 0 0 0 0 0 0 0 0 0 0 0 0 0 0 127 0" result="hardAlpha"/>
<feMorphology radius="6" operator="erode" in="SourceAlpha" result="effect1_innerShadow_0_1"/>
<feOffset dy="4"/>
<feGaussianBlur stdDeviation="6.3"/>
<feComposite in2="hardAlpha" operator="arithmetic" k2="-1" k3="1"/>
<feColorMatrix type="matrix" values="0 0 0 0 0.800237 0 0 0 0 0.704335 0 0 0 0 0.0809735 0 0 0 0.7 0"/>
<feBlend mode="normal" in2="shape" result="effect1_innerShadow_0_1"/>
</filter>
<filter id="filter1_i_0_1" x="510" y="336" width="23" height="23" filterUnits="userSpaceOnUse" color-interpolation-filters="sRGB">
<feFlood flood-opacity="0" result="BackgroundImageFix"/>
<feBlend mode="normal" in="SourceGraphic" in2="BackgroundImageFix" result="shape"/>
<feColorMatrix in="SourceAlpha" type="matrix" values="0 0 0 0 0 0 0 0 0 0 0 0 0 0 0 0 0 0 127 0" result="hardAlpha"/>
<feMorphology radius="5" operator="erode" in="SourceAlpha" result="effect1_innerShadow_0_1"/>
<feOffset/>
<feGaussianBlur stdDeviation="2"/>
<feComposite in2="hardAlpha" operator="arithmetic" k2="-1" k3="1"/>
<feColorMatrix type="matrix" values="0 0 0 0 0 0 0 0 0 0 0 0 0 0 0 0 0 0 1 0"/>
<feBlend mode="normal" in2="shape" result="effect1_innerShadow_0_1"/>
</filter>
</defs>
</svg>
